<?xml version="1.0" encoding="UTF-8"?>
<svg xmlns="http://www.w3.org/2000/svg" xmlns:xlink="http://www.w3.org/1999/xlink" width="32px" height="32px" viewBox="0 0 32 32" version="1.1">
<g id="surface1">
<path style=" stroke:none;fill-rule:nonzero;fill:rgb(79.6%,23.5%,94.5%);fill-opacity:1;" d="M 16 3 C 8.832 3 3 8.832 3 16 C 3 23.168 8.832 29 16 29 C 23.168 29 29 23.168 29 16 C 29 8.832 23.168 3 16 3 Z M 16 5 C 22.066 5 27 9.934 27 16 C 27 22.066 22.066 27 16 27 C 9.934 27 5 22.066 5 16 C 5 9.934 9.934 5 16 5 Z M 15 10 L 15 17 L 22 17 L 22 15 L 17 15 L 17 10 Z M 15 10 "/>
</g>
</svg>
